# xmcd
#
# Track frame offsets:
#	150
#	16993
#	29747
#	54251
#	69436
#	92877
#	107424
#	123180
#	140923
#	164685
#	199730
#
# Disc length: 2897 seconds
#
# Revision: 1
# Processed by: cddbd v1.5.2PL0 Copyright (c) Steve Scherf et al.
# Submitted via: audiograbber 1.83.01
#
DISCID=990b4f0b
DTITLE=Roseaux - Roseaux
DYEAR=2012
DGENRE=Blues
TTITLE0=Strange things
TTITLE1=If you didn't love me (don't go away)
TTITLE2=Walking on the moon
TTITLE3=Girl you rock my soul
TTITLE4=We all must live together
TTITLE5=Clarao da lua
TTITLE6=Indifference
TTITLE7=More than material
TTITLE8=Try me
TTITLE9=Missing you
TTITLE10=If you didn't love me (don't go away) (winter outro)
EXTD=
EXTT0=
EXTT1=
EXTT2=
EXTT3=
EXTT4=
EXTT5=
EXTT6=
EXTT7=
EXTT8=
EXTT9=
EXTT10=
PLAYORDER=
